<?xml version="1.0" standalone="no"?>
<!DOCTYPE svg PUBLIC "-//W3C//DTD SVG 20010904//EN"
 "http://www.w3.org/TR/2001/REC-SVG-20010904/DTD/svg10.dtd">
<svg version="1.0" xmlns="http://www.w3.org/2000/svg"
 width="1024.000000pt" height="1024.000000pt" viewBox="0 0 1024.000000 1024.000000"
 preserveAspectRatio="xMidYMid meet">

<g transform="translate(0.000000,1024.000000) scale(0.100000,-0.100000)"
fill="#000000" stroke="none">
<path d="M4650 8861 c-14 -27 -15 -25 36 -82 l45 -51 -6 -341 -7 -342 -39 -38
c-44 -44 -45 -45 -23 -75 15 -21 21 -22 174 -22 87 0 165 3 174 6 30 11 19 62
-20 99 l-36 34 3 123 c2 68 5 131 7 141 4 15 21 17 174 17 l169 0 -2 -122 c-2
-141 -12 -174 -63 -213 -20 -15 -36 -36 -36 -46 0 -37 38 -47 198 -53 l152 -7
25 25 c33 33 32 42 -12 83 l-38 34 1 82 c0 45 2 200 2 345 l2 262 40 44 c78
85 57 99 -158 104 -147 3 -168 1 -178 -13 -16 -22 -3 -58 36 -98 l30 -31 0
-128 0 -128 -170 0 -170 0 0 139 0 139 35 42 c41 49 42 54 13 74 -18 13 -54
16 -185 16 -150 0 -163 -1 -173 -19z"/>
<path d="M6220 8705 c-8 -10 -11 -30 -7 -59 8 -57 4 -64 -209 -363 -203 -284
-223 -309 -271 -318 -41 -7 -62 -42 -46 -77 8 -18 36 -31 137 -61 70 -22 134
-36 142 -33 17 6 16 28 -2 123 -5 25 1 44 32 93 45 74 22 75 274 -8 l55 -18 3
-73 c3 -84 -11 -111 -59 -111 -15 0 -35 -7 -43 -16 -19 -19 -21 -58 -3 -71 23
-19 281 -114 322 -120 31 -4 46 -1 58 12 24 23 21 42 -13 85 l-30 38 0 439 c0
448 -1 463 -37 463 -8 0 -68 20 -134 45 -131 49 -150 52 -169 30z m111 -377
c0 -62 3 -134 5 -160 6 -58 9 -57 -111 -19 -67 22 -91 34 -93 48 -1 10 28 56
69 108 96 122 107 135 119 135 6 0 10 -44 11 -112z"/>
<path d="M3605 8650 c-124 -45 -379 -140 -438 -162 -44 -17 -46 -88 -2 -88 26
0 63 -41 83 -92 11 -29 51 -129 87 -223 37 -93 85 -219 107 -280 l39 -110 -22
-47 c-34 -73 -11 -101 66 -80 23 6 102 38 176 70 74 33 190 81 259 106 69 26
130 53 136 61 12 17 -4 129 -29 199 -27 78 -69 74 -100 -10 -24 -64 -75 -115
-151 -153 -112 -55 -105 -58 -156 66 -24 59 -50 123 -57 141 l-14 33 66 30 66
31 39 -26 c61 -40 110 -31 110 20 0 11 -20 64 -45 117 -51 110 -74 127 -112
83 -13 -15 -23 -35 -23 -45 0 -10 -6 -23 -12 -29 -13 -10 -117 -52 -130 -52
-9 0 -88 206 -88 228 0 12 22 26 78 47 97 37 147 38 203 1 46 -31 81 -29 99 4
18 33 -57 211 -88 209 -9 0 -75 -22 -147 -49z"/>
<path d="M7114 8366 c-17 -13 -17 -18 -5 -65 7 -27 10 -59 6 -70 -3 -10 -42
-84 -86 -163 -45 -78 -112 -199 -151 -268 -85 -153 -100 -170 -148 -170 -47 0
-75 -28 -66 -65 7 -29 49 -57 233 -159 67 -37 166 -94 220 -127 53 -32 103
-59 109 -59 18 0 139 136 166 186 18 34 21 48 12 61 -17 28 -65 27 -119 -1
-26 -15 -64 -26 -84 -26 -41 0 -110 29 -159 66 -41 32 -41 31 58 204 43 74
108 189 146 255 80 140 102 165 144 165 34 0 73 33 68 58 -2 9 -60 49 -133 90
-173 99 -187 105 -211 88z"/>
<path d="M4294 8329 c-77 -10 -153 -23 -168 -29 -27 -10 -28 -13 -21 -58 11
-76 16 -91 33 -94 19 -4 350 37 381 47 11 3 22 12 22 18 4 35 -4 114 -13 125
-13 16 -61 14 -234 -9z"/>
<path d="M2767 8280 c-49 -32 -96 -68 -104 -80 -13 -19 -13 -24 1 -45 14 -21
25 -25 65 -25 33 0 53 -5 64 -18 34 -37 227 -344 222 -352 -3 -5 -42 8 -88 29
-80 37 -114 53 -381 180 -71 34 -134 61 -141 61 -23 0 -240 -175 -243 -195 -4
-34 14 -49 58 -49 28 -1 48 -8 63 -22 31 -30 309 -447 342 -513 22 -45 26 -61
20 -102 -8 -57 4 -79 43 -79 26 0 206 129 215 154 3 7 0 24 -7 37 -10 20 -18
24 -53 21 l-40 -3 -63 93 c-35 51 -99 144 -142 206 -43 62 -76 116 -73 121 3
5 141 -54 308 -131 341 -159 365 -168 400 -149 37 20 107 87 107 103 0 7 -18
37 -40 67 -40 52 -334 521 -364 579 -10 19 -16 56 -16 95 0 67 -7 78 -48 76
-9 0 -57 -27 -105 -59z"/>
<path d="M7896 7864 c-11 -10 -16 -33 -16 -67 0 -70 -32 -117 -286 -412 -140
-163 -143 -166 -199 -173 -38 -4 -48 -10 -61 -34 -21 -40 -10 -55 108 -152 51
-42 152 -128 223 -191 72 -63 136 -115 143 -115 18 0 144 101 181 147 36 44
39 73 10 99 -20 18 -22 18 -82 -4 -76 -27 -113 -28 -152 -3 -36 22 -125 100
-125 109 0 16 298 369 399 475 53 54 58 57 92 52 42 -7 72 14 67 48 -2 12 -34
48 -73 80 -208 176 -200 171 -229 141z"/>
<path d="M1840 7561 c-58 -60 -106 -119 -108 -131 -5 -34 15 -49 65 -48 54 1
60 -5 222 -191 302 -347 295 -338 285 -391 -7 -34 9 -60 37 -60 10 0 42 24 71
53 29 28 84 80 121 114 37 34 67 69 67 76 0 27 -35 47 -83 47 l-46 0 -153 171
c-308 344 -305 341 -310 424 -3 37 -6 40 -33 42 -26 2 -43 -11 -135 -106z"/>
<path d="M3471 7380 c-64 -51 -77 -71 -112 -175 -63 -188 -112 -552 -107 -807
l2 -168 -35 -47 c-127 -169 -219 -376 -275 -615 -16 -72 -20 -78 -43 -78 -38
0 -217 -47 -259 -67 -41 -20 -55 -58 -26 -70 9 -3 65 5 123 20 58 14 121 29
140 32 l34 7 -7 -43 c-3 -24 -7 -87 -7 -140 l0 -96 -89 -36 c-100 -40 -168
-80 -177 -103 -6 -17 14 -44 34 -44 8 0 52 18 96 40 45 22 96 43 113 46 31 6
32 4 38 -33 4 -21 22 -77 41 -123 l34 -85 -32 -24 c-70 -52 -216 -213 -283
-312 -96 -140 -124 -192 -183 -337 -61 -150 -96 -269 -120 -410 -20 -113 -15
-143 23 -150 30 -6 45 18 61 96 71 329 148 523 293 742 54 82 219 259 274 294
26 17 27 17 88 -29 64 -46 95 -59 127 -53 37 7 26 39 -30 89 -31 27 -72 72
-93 100 -40 55 -94 195 -94 245 0 27 5 32 38 42 76 23 276 52 357 52 96 0 135
11 135 39 0 39 -22 44 -178 38 -131 -5 -287 -29 -346 -53 -18 -7 -18 -1 -14
112 2 66 8 126 12 133 13 21 273 8 403 -20 56 -12 109 -19 117 -16 24 9 19 44
-7 62 -43 28 -197 55 -350 62 l-147 6 6 36 c34 184 156 448 274 593 66 81 70
89 58 110 -20 36 -17 382 6 543 34 243 72 401 110 457 19 28 28 33 61 32 35
-2 46 -9 107 -75 109 -119 186 -234 265 -396 40 -83 81 -157 89 -164 21 -18
48 0 52 34 8 68 -190 409 -304 525 -40 39 -70 72 -67 72 2 0 54 -33 116 -73
153 -100 297 -218 405 -332 95 -100 109 -107 169 -84 60 23 206 49 364 65 257
26 552 7 721 -46 35 -11 69 -20 76 -20 8 0 51 36 95 79 45 44 120 110 167 146
97 77 394 275 412 275 3 0 -27 -33 -66 -73 -133 -137 -346 -439 -346 -491 0
-8 9 -20 21 -26 27 -15 39 -4 80 68 90 160 390 512 437 512 59 0 93 -186 93
-510 -1 -169 -5 -219 -37 -390 -5 -33 0 -44 55 -120 130 -181 213 -411 235
-652 l7 -67 -28 -6 c-70 -13 -154 -35 -187 -49 -28 -12 -36 -21 -36 -41 0 -14
6 -28 14 -31 8 -3 53 4 101 15 126 30 135 29 135 -16 0 -21 -3 -62 -7 -91 -6
-54 -6 -54 -37 -48 -17 3 -71 10 -121 16 -82 9 -91 8 -108 -9 -31 -31 -8 -58
55 -66 81 -10 164 -26 178 -35 16 -10 -32 -152 -85 -246 -42 -75 -142 -179
-210 -220 -48 -27 -61 -49 -44 -70 16 -20 48 -17 107 7 l50 21 54 -41 c60 -45
127 -77 203 -97 91 -25 295 -14 406 21 16 5 16 3 -3 -37 -12 -24 -21 -59 -22
-78 -1 -29 3 -36 21 -38 19 -3 28 9 58 70 20 40 48 86 63 102 47 50 126 71
173 46 23 -13 49 -61 49 -90 0 -23 -77 -180 -89 -180 -3 0 -24 -15 -46 -34
-35 -30 -38 -35 -25 -51 14 -16 35 -16 86 0 20 6 21 4 23 -122 l2 -128 -38
-36 c-122 -116 -410 -246 -584 -264 l-66 -7 -7 79 c-13 152 -71 318 -110 318
-36 0 -41 -28 -18 -106 32 -112 42 -190 42 -350 0 -116 3 -149 15 -159 34 -28
75 13 75 76 0 31 0 31 68 38 79 8 201 40 255 68 34 17 41 18 55 5 57 -50 158
-67 389 -67 234 0 427 30 499 77 29 18 48 66 40 98 -12 46 -131 101 -276 125
-81 14 -100 19 -100 29 0 5 13 11 28 14 35 7 121 74 153 118 48 67 69 138 69
235 0 109 -16 169 -66 242 -37 53 -119 112 -156 112 -15 0 -18 9 -18 58 l0 59
43 12 c143 43 307 178 367 305 73 155 98 321 80 547 -13 167 -64 462 -87 502
-27 46 -110 84 -213 98 -123 18 -512 14 -641 -6 -156 -24 -196 -39 -218 -83
-37 -75 -91 -351 -98 -505 l-6 -119 -30 6 c-16 3 -40 6 -52 6 -20 0 -22 6 -28
78 -17 222 -104 471 -231 667 -54 83 -55 86 -47 132 22 119 33 379 22 538 -17
258 -69 402 -165 452 -90 47 -361 -85 -651 -317 -60 -49 -126 -105 -145 -125
-52 -54 -62 -58 -122 -41 -233 66 -789 60 -1039 -10 l-60 -17 -92 90 c-101 98
-251 221 -337 275 -125 80 -325 168 -379 168 -19 0 -47 -14 -80 -40z m4403
-1241 c39 -5 72 -11 74 -14 7 -7 -70 -25 -173 -41 -137 -22 -468 -15 -573 11
-40 10 -69 22 -65 26 8 8 172 25 313 33 95 5 344 -4 424 -15z m161 -209 c10
-58 23 -136 30 -173 l12 -69 -31 7 c-74 15 -147 25 -236 32 -108 9 -506 11
-514 3 -3 -3 -10 -66 -16 -140 -7 -74 -16 -143 -21 -152 -13 -24 -42 -23 -65
3 -16 18 -19 39 -21 153 -2 72 -3 132 -3 132 0 3 -127 -24 -143 -31 -16 -7
-17 -3 -12 36 12 86 53 297 60 307 1 1 28 -7 61 -18 91 -32 236 -43 454 -37
189 6 291 20 375 50 22 8 43 12 46 8 3 -3 14 -53 24 -111z m42 -337 c-3 -10
-5 -4 -5 12 0 17 2 24 5 18 2 -7 2 -21 0 -30z m-1176 -162 c4 -3 14 -50 23
-104 27 -168 88 -291 195 -397 57 -57 176 -126 258 -150 42 -13 64 -37 40 -45
-6 -2 -30 -5 -52 -8 -22 -3 -94 -25 -160 -50 -207 -77 -376 -85 -512 -22 -57
26 -123 72 -123 86 0 5 19 35 43 68 56 75 121 201 142 274 19 66 22 67 112 35
59 -21 64 -22 80 -6 30 31 5 59 -78 89 l-74 27 4 103 c2 57 5 107 7 111 5 7
86 -2 95 -11z m677 -758 c-3 -85 -18 -103 -42 -51 -16 35 -19 55 -17 101 1 23
5 27 31 27 l31 0 -3 -77z m141 -137 c42 -22 89 -80 101 -126 14 -52 15 -156 1
-207 -12 -45 -48 -102 -94 -150 -39 -41 -47 -41 -47 0 0 37 -15 57 -42 57 -60
0 -143 106 -136 174 3 29 8 32 76 55 99 33 96 61 -8 61 l-48 0 18 38 c20 42
50 72 95 95 38 20 49 21 84 3z m-160 -479 l34 -23 -2 -86 c-3 -103 -6 -99 125
-123 126 -23 226 -53 221 -68 -11 -34 -273 -62 -497 -53 -164 6 -220 13 -220
26 0 5 8 11 18 14 10 4 45 23 78 43 32 19 83 43 112 53 91 29 96 36 88 146 -4
52 -3 94 1 94 5 0 24 -10 42 -23z"/>
<path d="M1517 7211 c-103 -133 -103 -180 0 -159 42 9 47 8 75 -18 29 -28 239
-285 286 -351 13 -18 18 -33 12 -33 -6 0 -84 28 -173 61 -271 103 -307 122
-307 163 0 12 -7 32 -16 44 -29 42 -54 25 -131 -88 -102 -147 -107 -158 -94
-186 12 -26 32 -30 78 -14 22 8 41 7 74 -4 24 -8 59 -17 77 -21 24 -5 43 -21
71 -58 50 -68 191 -288 191 -298 0 -5 -46 11 -102 35 -407 171 -388 161 -388
214 0 46 -19 76 -45 70 -17 -3 -51 -47 -175 -227 -54 -79 -30 -140 43 -105 33
16 36 15 138 -25 232 -91 627 -240 652 -246 17 -5 33 -2 43 6 19 15 88 116 97
141 4 12 -22 56 -83 140 -140 194 -162 227 -158 237 1 5 80 -22 173 -60 94
-38 180 -69 192 -69 16 0 38 20 78 73 30 41 55 80 55 88 0 8 -32 53 -70 99
-39 47 -96 120 -128 163 -31 43 -117 154 -189 247 -119 151 -133 172 -133 208
0 40 -23 72 -51 72 -8 0 -49 -45 -92 -99z"/>
<path d="M8532 7248 c-7 -7 -12 -36 -12 -64 l0 -53 -153 -133 c-279 -243 -338
-293 -353 -301 -9 -5 -32 -5 -53 0 -70 18 -105 -19 -71 -74 9 -16 68 -89 129
-163 62 -74 147 -181 189 -237 91 -122 100 -125 189 -60 143 106 151 174 19
169 -77 -3 -101 11 -183 110 l-61 74 81 71 c45 39 94 81 108 92 l26 20 57 -58
56 -59 -15 -36 c-22 -53 -19 -84 10 -98 21 -9 30 -7 62 14 65 44 153 129 153
147 0 30 -36 54 -78 53 -34 -2 -43 4 -90 57 -29 33 -52 63 -52 66 0 3 15 18
32 33 18 15 57 49 87 76 l55 49 49 -53 c27 -29 55 -64 64 -76 25 -38 33 -95
21 -142 -10 -39 -9 -46 9 -64 29 -29 65 -18 143 45 44 35 66 61 68 78 2 19
-22 52 -115 154 -66 72 -163 185 -216 253 -99 124 -124 141 -155 110z"/>
<path d="M6065 6811 c-16 -10 -52 -41 -78 -70 -45 -48 -56 -80 -31 -88 18 -6
154 132 154 156 0 26 -7 26 -45 2z"/>
<path d="M3766 6781 c-6 -9 59 -93 117 -154 20 -21 31 -27 39 -19 19 19 -1 59
-60 121 -54 57 -83 73 -96 52z"/>
<path d="M6113 6659 c-38 -19 -63 -52 -49 -66 18 -18 106 42 106 72 0 20 -7
19 -57 -6z"/>
<path d="M3728 6614 c-5 -4 -8 -11 -8 -15 0 -13 73 -59 93 -59 27 0 33 29 10
51 -20 21 -83 36 -95 23z"/>
<path d="M5935 6011 c-79 -20 -166 -100 -185 -171 -32 -119 -1 -238 83 -317
63 -59 109 -77 188 -71 72 5 117 38 163 118 29 51 31 62 31 150 0 84 -3 102
-28 152 -31 64 -83 110 -147 133 -46 16 -59 17 -105 6z m135 -191 c25 -25 27
-85 4 -94 -41 -16 -75 4 -87 52 -4 16 2 28 20 42 32 25 38 25 63 0z"/>
<path d="M4411 6000 c-125 -31 -207 -178 -180 -324 13 -72 31 -110 73 -154 86
-93 222 -104 333 -29 161 110 144 380 -32 478 -55 30 -139 43 -194 29z m202
-198 c9 -10 20 -32 23 -49 5 -25 2 -33 -14 -42 -12 -6 -27 -11 -36 -11 -21 0
-76 49 -76 68 0 45 71 69 103 34z"/>
<path d="M5265 5633 c-37 -9 -65 -44 -65 -81 0 -25 9 -43 34 -68 19 -19 43
-34 54 -34 41 0 52 -26 52 -116 0 -107 -18 -154 -76 -199 -105 -79 -299 -70
-406 20 -32 27 -57 32 -76 13 -22 -22 -13 -46 34 -87 64 -56 154 -85 264 -85
100 0 168 20 242 71 46 32 54 34 72 22 71 -45 102 -54 186 -54 103 0 171 27
225 87 40 44 45 92 12 112 -15 9 -24 4 -55 -31 -20 -23 -52 -49 -71 -58 -52
-26 -133 -31 -185 -11 -68 26 -77 48 -75 176 l1 109 51 38 c79 59 89 124 24
163 -26 16 -49 20 -127 19 -52 -1 -104 -3 -115 -6z"/>
<path d="M3463 4129 c-17 -17 -16 -44 0 -57 7 -6 46 -24 88 -40 232 -89 449
-281 530 -469 22 -52 22 -122 0 -178 l-13 -30 -13 38 c-7 20 -29 57 -50 82
-57 70 -101 55 -56 -19 23 -38 54 -132 49 -148 -4 -11 -79 -38 -110 -38 -10 0
-21 13 -28 34 -12 38 -100 126 -125 126 -30 0 -26 -29 9 -82 47 -69 47 -79 -1
-67 -75 20 -181 63 -312 127 -143 69 -163 71 -169 19 -3 -23 5 -32 55 -64 32
-20 107 -60 168 -89 223 -105 397 -118 559 -41 109 52 156 126 156 249 0 211
-236 477 -541 609 -103 44 -176 59 -196 38z"/>
<path d="M2483 3022 c-48 -7 -70 -83 -35 -115 28 -25 87 -22 106 5 40 57 -2
121 -71 110z"/>
<path d="M4123 3020 c-43 -17 -58 -84 -25 -113 25 -23 78 -21 102 3 51 51 -9
137 -77 110z"/>
<path d="M7241 3016 c-62 -13 -74 -31 -41 -56 23 -17 23 -20 24 -240 2 -222 2
-222 -21 -233 -15 -6 -23 -19 -23 -34 0 -24 0 -24 102 -21 88 3 103 5 106 20
2 11 -6 22 -22 29 -26 12 -26 13 -26 135 l0 122 34 12 c39 13 80 1 95 -29 6
-11 11 -65 11 -120 0 -87 -3 -104 -20 -121 -11 -11 -17 -26 -14 -35 9 -22 189
-22 198 0 5 15 -18 45 -35 45 -5 0 -9 53 -9 120 0 138 -12 180 -59 204 -45 24
-112 23 -160 -2 l-40 -21 -3 117 c-3 134 1 129 -97 108z"/>
<path d="M7780 3023 c-51 -19 -68 -84 -30 -118 43 -39 120 -7 120 50 0 42 -52
82 -90 68z"/>
<path d="M8005 3016 c-65 -12 -83 -35 -46 -56 20 -10 21 -19 21 -240 0 -222
-1 -229 -21 -235 -14 -5 -19 -14 -17 -28 3 -21 8 -22 98 -22 90 0 95 1 98 22
2 14 -3 23 -17 28 -20 6 -21 14 -23 273 -3 301 5 277 -93 258z"/>
<path d="M8265 3019 c-22 -6 -50 -12 -62 -15 -29 -6 -31 -40 -3 -49 19 -6 20
-15 20 -235 0 -222 -1 -228 -21 -233 -15 -4 -20 -12 -17 -29 3 -22 7 -23 97
-26 52 -1 98 1 103 6 13 13 -1 40 -23 47 -18 6 -19 21 -21 273 -3 296 2 278
-73 261z"/>
<path d="M1629 2978 c-40 -41 -59 -85 -59 -140 0 -58 22 -88 64 -88 35 0 60
20 69 58 4 16 -3 30 -24 50 -27 25 -28 30 -18 64 5 21 19 42 29 48 28 15 25
40 -4 40 -14 0 -38 -14 -57 -32z"/>
<path d="M1806 2974 c-54 -55 -74 -155 -40 -202 21 -30 76 -30 104 0 27 30 25
45 -11 79 -25 23 -30 34 -24 57 3 16 19 42 35 57 16 15 27 32 24 37 -12 20
-55 6 -88 -28z"/>
<path d="M2113 2999 c-79 -24 -143 -125 -130 -205 10 -60 36 -85 143 -134 55
-26 104 -55 107 -65 23 -59 -16 -105 -90 -105 -38 0 -50 5 -76 34 -18 18 -40
44 -49 57 -25 37 -52 15 -56 -44 -3 -39 1 -51 21 -71 50 -50 209 -58 286 -15
74 41 106 127 77 203 -22 57 -46 78 -141 121 -97 44 -115 60 -115 97 0 39 32
68 76 68 49 0 70 -14 94 -60 23 -44 23 -44 51 -30 15 9 19 22 19 65 0 51 -2
55 -32 71 -38 20 -140 27 -185 13z"/>
<path d="M6858 2997 c-136 -39 -210 -143 -211 -298 -1 -64 4 -86 27 -132 47
-98 132 -147 250 -147 87 0 132 16 177 61 70 70 43 118 -37 64 -46 -31 -90
-39 -141 -26 -91 25 -137 100 -138 221 0 125 54 200 145 200 56 0 91 -23 121
-82 17 -33 24 -39 47 -36 26 3 27 5 30 75 l3 72 -38 17 c-51 21 -176 27 -235
11z"/>
<path d="M8463 2995 c-21 -9 -35 -23 -39 -41 -6 -23 -2 -32 24 -54 40 -33 40
-50 1 -94 -56 -64 -3 -80 59 -18 68 68 75 175 14 206 -23 12 -32 12 -59 1z"/>
<path d="M3240 2985 c-11 -13 -9 -20 13 -43 25 -27 54 -110 128 -372 18 -63
36 -121 42 -127 5 -8 31 -13 59 -13 56 0 44 -17 113 163 20 53 40 97 44 97 4
0 26 -57 47 -127 l40 -128 56 -3 c56 -3 56 -3 67 30 5 18 35 119 66 225 68
235 71 244 97 264 13 10 19 23 15 33 -9 24 -165 24 -174 0 -4 -11 3 -23 20
-36 35 -26 35 -54 -2 -182 -16 -55 -34 -120 -40 -143 -7 -24 -15 -43 -20 -43
-7 0 -101 310 -101 332 0 4 12 18 26 32 17 15 25 30 21 40 -5 13 -25 16 -112
16 -123 0 -135 -9 -88 -63 16 -19 35 -55 43 -81 12 -45 12 -50 -30 -161 -24
-63 -47 -115 -51 -115 -9 0 -52 131 -90 269 l-23 83 27 20 c15 11 24 25 20 33
-8 22 -195 21 -213 0z"/>
<path d="M5534 2985 c-5 -11 4 -25 25 -43 l32 -27 -3 -205 c-3 -202 -3 -205
-26 -215 -26 -11 -39 -42 -24 -57 7 -7 74 -9 184 -6 155 4 177 6 216 26 56 30
82 73 82 139 0 63 -30 104 -93 126 -36 12 -39 16 -22 22 11 4 35 22 53 38 26
26 32 38 32 73 0 60 -15 88 -64 115 -38 22 -54 24 -213 27 -154 4 -174 2 -179
-13z m298 -65 c30 -23 40 -62 26 -101 -13 -37 -49 -59 -98 -59 l-40 0 0 90 0
90 44 0 c28 0 52 -7 68 -20z m8 -233 c55 -28 60 -145 7 -182 -26 -18 -98 -20
-115 -3 -8 8 -12 46 -12 105 l0 93 48 0 c26 0 58 -6 72 -13z"/>
<path d="M8620 2980 c-32 -32 -25 -66 18 -89 30 -16 28 -44 -8 -84 -34 -39
-38 -57 -12 -57 56 0 122 85 122 158 0 78 -72 120 -120 72z"/>
<path d="M2868 2824 c-26 -8 -50 -19 -53 -24 -10 -17 -25 -11 -25 10 0 23 -3
24 -87 8 -75 -14 -89 -31 -50 -60 l27 -20 0 -208 0 -208 -25 -6 c-18 -5 -25
-13 -25 -31 l0 -25 110 0 c88 0 110 3 110 14 0 8 -11 23 -25 33 -20 14 -26 29
-30 77 -5 53 -4 58 12 51 31 -12 91 -18 118 -11 41 10 102 73 122 124 24 62
22 170 -3 213 -38 65 -98 86 -176 63z m49 -86 c41 -34 39 -193 -3 -235 -25
-25 -71 -31 -105 -13 -17 10 -19 21 -16 125 2 63 7 119 12 124 23 22 86 21
112 -1z"/>
<path d="M4953 2828 c-57 -9 -98 -42 -128 -102 -60 -120 -5 -277 106 -301 76
-17 191 33 205 89 10 42 -4 48 -50 21 -24 -14 -55 -25 -70 -25 -37 0 -96 58
-96 94 l0 26 115 0 c133 0 135 1 116 84 -21 93 -91 133 -198 114z m60 -66 c9
-10 20 -33 23 -50 l7 -32 -62 0 c-41 0 -61 4 -62 13 -3 28 4 63 13 75 15 18
62 15 81 -6z"/>
<path d="M6226 2829 c-56 -13 -93 -44 -122 -102 -35 -68 -32 -174 6 -231 36
-52 98 -80 162 -73 82 10 162 77 144 122 -5 14 -11 13 -49 -10 -50 -29 -76
-31 -116 -10 -28 14 -36 25 -51 78 l-9 27 120 0 c138 0 137 -1 119 84 -8 41
-19 62 -41 81 -42 35 -103 47 -163 34z m67 -67 c9 -10 20 -33 23 -50 l7 -32
-67 0 -67 0 7 38 c4 20 11 43 17 50 14 18 61 15 80 -6z"/>
<path d="M2445 2816 c-58 -14 -71 -39 -31 -57 26 -12 26 -13 26 -133 0 -118 0
-121 -27 -142 -17 -14 -24 -26 -20 -37 5 -14 22 -17 106 -17 113 0 133 13 81
52 l-30 22 0 163 0 163 -27 -1 c-16 -1 -50 -7 -78 -13z"/>
<path d="M4100 2816 c-63 -13 -75 -34 -35 -60 24 -16 25 -19 25 -135 0 -118 0
-120 -27 -139 -17 -13 -24 -25 -20 -36 5 -13 23 -16 106 -16 112 0 130 10 87
47 l-27 23 -2 163 -2 162 -25 2 c-14 0 -50 -4 -80 -11z"/>
<path d="M4350 2816 c-63 -13 -76 -35 -36 -62 25 -16 26 -19 26 -135 0 -118 0
-120 -25 -131 -18 -8 -25 -18 -23 -32 3 -19 11 -21 101 -24 84 -2 98 0 104 14
4 11 -1 23 -15 35 -20 16 -22 26 -22 137 0 133 -1 132 70 132 59 0 70 -23 70
-148 0 -94 -2 -105 -22 -121 -13 -11 -19 -24 -15 -34 9 -25 185 -25 194 -1 4
11 -3 23 -20 36 -27 19 -27 21 -27 138 0 65 -4 130 -10 144 -23 61 -125 84
-200 46 -39 -20 -39 -20 -45 0 -7 23 -23 23 -105 6z"/>
<path d="M7745 2817 c-72 -15 -84 -37 -35 -62 l30 -16 0 -119 c0 -119 0 -121
-25 -132 -18 -8 -25 -18 -23 -32 3 -19 11 -21 101 -24 84 -2 98 0 104 14 4 11
-2 23 -20 36 l-27 20 0 164 0 164 -27 -1 c-16 -1 -50 -6 -78 -12z"/>
<path d="M5217 2562 c-26 -29 -22 -78 8 -98 34 -22 32 -55 -5 -97 -34 -39 -38
-57 -12 -57 90 0 165 178 102 245 -28 30 -70 33 -93 7z"/>
</g>
</svg>
